<?xml version="1.0" encoding="UTF-8" standalone="no"?>
<svg
   xmlns:dc="http://purl.org/dc/elements/1.1/"
   xmlns:cc="http://creativecommons.org/ns#"
   xmlns:rdf="http://www.w3.org/1999/02/22-rdf-syntax-ns#"
   xmlns:svg="http://www.w3.org/2000/svg"
   xmlns="http://www.w3.org/2000/svg"
   xmlns:sodipodi="http://sodipodi.sourceforge.net/DTD/sodipodi-0.dtd"
   xmlns:inkscape="http://www.inkscape.org/namespaces/inkscape"
   width="96.694695mm"
   height="67.254791mm"
   viewBox="0 0 96.694691 67.254794"
   version="1.1"
   id="svg8"
   inkscape:version="1.0.1 (3bc2e81, 2020-09-07)"
   sodipodi:docname="wood.svg">
  <defs
     id="defs2" />
  <sodipodi:namedview
     id="base"
     pagecolor="#ffffff"
     bordercolor="#666666"
     borderopacity="1.0"
     inkscape:pageopacity="0.0"
     inkscape:pageshadow="2"
     inkscape:zoom="1.4914076"
     inkscape:cx="137.46037"
     inkscape:cy="102.76847"
     inkscape:document-units="mm"
     inkscape:current-layer="layer1"
     inkscape:document-rotation="0"
     showgrid="false"
     inkscape:window-width="1338"
     inkscape:window-height="696"
     inkscape:window-x="14"
     inkscape:window-y="58"
     inkscape:window-maximized="0" />
  <metadata
     id="metadata5">
    <rdf:RDF>
      <cc:Work
         rdf:about="">
        <dc:format>image/svg+xml</dc:format>
        <dc:type
           rdf:resource="http://purl.org/dc/dcmitype/StillImage" />
        <dc:title></dc:title>
      </cc:Work>
    </rdf:RDF>
  </metadata>
  <g
     inkscape:label="Layer 1"
     inkscape:groupmode="layer"
     id="layer1"
     transform="translate(-392.71803,-329.00019)">
    <path
       style="fill:#fff6d5;stroke:none;stroke-width:0.553448"
       d="m 424.7224,345.44429 h -0.88619 c -3.24229,-3.9895 0.36377,-7.25425 3.5447,-11.06083 h -0.88619 c -2.76786,1.84972 -5.29112,3.79148 -6.66541,5.87607 -7.30033,11.07382 13.62177,17.07187 24.26571,26.26947 3.50303,3.02687 2.90984,6.82902 6.60248,10.02388 6.98905,6.04715 18.838,9.73767 29.46992,14.66389 3.24061,1.5015 1.57243,3.90171 5.70064,5.03821 v -3.45652 l 3.54466,0.69131 c -9.26754,-5.67213 -10.90713,-13.22081 -18.56302,-19.35646 -11.38062,-9.12069 -31.89766,-15.37773 -30.82927,-26.26946 0.59832,-6.09998 12.33537,-10.97414 15.71786,-16.59125 l -5.31701,0.69131 3.5447,-2.76521 c -4.27709,0 -12.65336,-0.63026 -16.27247,0.35526 -2.73906,0.74589 -4.23962,2.64015 -5.50294,3.79255 -4.03356,3.67939 -7.38283,8.07869 -7.46817,12.09778 m 49.62544,-16.24559 -22.15421,22.12165 h 0.88616 l 24.81275,-22.12165 h -3.5447 m -23.92656,2.76521 -0.88616,0.34565 0.88616,-0.34565 m -37.21909,14.86298 c -6.38333,2.27273 -15.4741,5.4606 -18.73605,8.64127 -3.42614,3.34083 -0.75966,8.86111 -0.75966,12.44344 v 28.34338 h 42.53611 c -6.40426,-3.5882 -14.37995,-6.61266 -20.32446,-10.36953 -10.4615,-6.61196 -14.17745,-14.10602 -13.31504,-21.77601 0.39894,-3.54852 2.35721,-7.75161 5.68008,-11.06083 1.71809,-1.71104 6.18421,-4.42209 4.91902,-6.22172 m 35.44677,19.35646 c 14.51306,6.4806 26.49149,13.94009 31.01589,22.4673 l -17.72335,-6.56736 c -3.55435,-5.37418 -14.01964,-9.98482 -13.29254,-15.89994 m 7.08933,10.02387 0.88619,0.34566 -0.88619,-0.34566 m 13.29254,8.29562 1.77235,0.69131 z"
       id="path72" />
  </g>
</svg>
